# AST/ASF file generated using VICON BodyLanguage
# -----------------------------------------------
:version 1.10
:name VICON
:units
  mass 1.0
  length 0.45
  angle deg
:documentation
   .ast/.asf automatically generated from VICON data using
   VICON BodyBuilder and BodyLanguage model FoxedUp or BRILLIANT.MOD
:root
   order TX TY TZ RX RY RZ
   axis XYZ
   position 0 0 0  
   orientation 0 0 0 
:bonedata
  begin
     id 1 
     name lhipjoint
     direction 0.700308 -0.549349 0.455834 
     length 2.59063 
     axis 0 0 0  XYZ
  end
  begin
     id 2 
     name lfemur
     direction 0.34202 -0.939693 0  
     length 6.31066  
     axis 0 0 20  XYZ
    dof rx ry rz
    limits (-160.0 20.0)
           (-70.0 70.0)
           (-60.0 70.0)
  end
  begin
     id 3 
     name ltibia
     direction 0.34202 -0.939693 0   
     length 7.36093   
     axis 0 0 20   XYZ
    dof rx
    limits (-10.0 170.0)
  end
  begin
     id 4 
     name lfoot
     direction 0.0905332 -0.248738 0.96433   
     length 2.0233   
     axis -90 7.62852e-016 20   XYZ
    dof rx rz
    limits (-45.0 90.0)
           (-70.0 20.0)
  end
  begin
     id 5 
     name ltoes
     direction 1.53573e-011 -4.21855e-011 1   
     length 1.01524   
     axis -90 7.62852e-016 20   XYZ
    dof rx
    limits (-90.0 20.0)
  end
  begin
     id 6 
     name rhipjoint
     direction -0.61416 -0.607328 0.503944   
     length 2.34332  
     axis 0 0 0  XYZ 
  end
  begin
     id 7 
     name rfemur
     direction -0.34202 -0.939693 0   
     length 6.58548   
     axis 0 0 -20   XYZ
    dof rx ry rz
    limits (-160.0 20.0)
           (-70.0 70.0)
           (-70.0 60.0)
  end
  begin
     id 8 
     name rtibia
     direction -0.34202 -0.939693 0   
     length 7.20707   
     axis 0 0 -20   XYZ
    dof rx
    limits (-10.0 170.0)
 end
 begin
     id 9 
     name rfoot
     direction -0.136772 -0.375778 0.916561   
     length 1.92184  
     axis -90 -7.62852e-016 -20   XYZ
    dof rx rz
    limits (-45.0 90.0)
           (-20.0 70.0)
  end
  begin
     id 10 
     name rtoes
     direction -1.53535e-011 -4.21828e-011 1   
     length 0.951089   
     axis -90 -7.62852e-016 -20   XYZ
    dof rx
    limits (-90.0 20.0)
  end
  begin
     id 11 
     name lowerback
     direction -0.0444974 0.988086 -0.147332   
     length 1.9609   
     axis 0 0 0   XYZ
    dof rx ry rz
    limits (-20.0 45.0)
           (-30.0 30.0)
           (-30.0 30.0)
  end
  begin
     id 12 
     name upperback
     direction 0.00613146 0.999513 0.0306081   
     length 1.94944   
     axis 0 0 0   XYZ
    dof rx ry rz
    limits (-20.0 45.0)
           (-30.0 30.0)
           (-30.0 30.0)
  end
  begin
     id 13 
     name thorax
     direction 0.0254621 0.994518 0.101418   
     length 2.0119   
     axis 0 0 0   XYZ
    dof rx ry rz
    limits (-20.0 45.0)
           (-30.0 30.0)
           (-30.0 30.0)
  end
  begin
     id 14 
     name lowerneck
     direction 0.0168698 0.977854 0.208608   
     length 1.6375   
     axis 0 0 0   XYZ
    dof rx ry rz
    limits (-20.0 45.0)
           (-30.0 30.0)
           (-30.0 30.0)
  end
  begin
     id 15 
     name upperneck
     direction -0.0283988 0.989338 -0.142843   
     length 1.6851   
     axis 0 0 0   XYZ
    dof rx ry rz
    limits (-20.0 45.0)
           (-30.0 30.0)
           (-30.0 30.0)
  end
  begin
     id 16
     name head
     direction -0.0129422 0.99741 -0.0707489  
     length 1.69029  
     axis 0 0 0   XYZ
    dof rx ry rz
    limits (-20.0 45.0)
           (-30.0 30.0)
           (-30.0 30.0)
  end
  begin
     id 17 
     name lclavicle
     direction 0.820295 0.564628 -0.0911715  
     length 3.16484  
     axis 0 0 0   XYZ
    dof ry rz
    limits (-20.0 10.0)
           (0.0 20.0)
  end
  begin
     id 18 
     name lhumerus
     direction 1 -4.48969e-011 1.00186e-027   
     length 5.17853   
     axis 180 -30 -90   XYZ
    dof rx ry rz
    limits (-60.0 90.0)
           (-90.0 90.0)
           (-90.0 90.0)
  end
  begin
     id 19
     name lradius
     direction 1 -4.48966e-011 -1.52922e-027   
     length 3.40399   
     axis 180 -30 -90   XYZ
    dof rx
    limits (-10.0 170.0)
  end
  begin
     id 20
     name lwrist
     direction 1 -4.48981e-011 -3.80893e-027   
     length 1.70199   
     axis 1.1049e-015 90 90   XYZ
    dof ry
    limits (-180.0 0.0)
 end
  begin
     id 21 
     name lhand
     direction 1 -4.48957e-011 -7.61786e-027   
     length 0.708964   
     axis 4.86085e-015 90 90   XYZ
    dof rx rz
    limits (-90.0 90.0)
           (-45.0 45.0)
  end
  begin
     id 22 
     name lfingers
     direction 1 -4.48929e-011 -1.52357e-026   
     length 0.571585   
     axis 9.7217e-015 90 90   XYZ
    dof rx
    limits (0.0 90.0)
  end
  begin
     id 23
     name lthumb
     direction 0.707107 -6.34905e-011 0.707107   
     length 0.820685   
     axis -90 45 2.85299e-015   XYZ
    dof rx rz
    limits (-45.0 45.0)
           (-45.0 45.0)
  end
  begin
     id 24 
     name rclavicle
     direction -0.858602 0.463947 -0.218075   
     length 3.35137  
     axis 0 0 0   XYZ 
    dof ry rz
    limits (-10.0 20.0)
           (-20.0 0.0)
  end
  begin
     id 25 
     name rhumerus
     direction -1 -4.48969e-011 -1.98511e-027  
     length 5.42351   
     axis 180 30 90   XYZ
    dof rx ry rz
    limits (-90.0 60.0)
           (-90.0 90.0)
           (-90.0 90.0)
  end
  begin
     id 26 
     name rradius
     direction -1 -4.48961e-011 -2.82624e-027   
     length 3.42066   
     axis 180 30 90   XYZ
    dof rx
    limits (-10.0 170.0)
  end
  begin
     id 27 
     name rwrist
     direction -1 -4.48966e-011 -3.80893e-027   
     length 1.71033   
     axis 1.1049e-015 -90 -90   XYZ
    dof ry
    limits (-180.0 0.0)
  end
  begin
     id 28
     name rhand
     direction -1 -4.48964e-011 -7.61786e-027   
     length 0.743608   
     axis 4.86085e-015 -90 -90   XYZ
    dof rx rz
    limits (-90.0 90.0)
           (-45.0 45.0)
  end
  begin
     id 29
     name rfingers
     direction -1 -4.48961e-011 -1.52357e-026   
     length 0.599516   
     axis 9.7217e-015 -90 -90   XYZ
    dof rx
    limits (0.0 90.0)
  end
  begin
     id 30
     name rthumb
     direction -0.707107 -6.34913e-011 0.707107   
     length 0.860789   
     axis -90 -45 -2.85299e-015   XYZ
    dof rx rz
    limits (-45.0 45.0)
           (-45.0 45.0)
  end
:hierarchy
  begin
    root lhipjoint rhipjoint lowerback
    lhipjoint lfemur
    lfemur ltibia
    ltibia lfoot
    lfoot ltoes
    rhipjoint rfemur
    rfemur rtibia
    rtibia rfoot
    rfoot rtoes
    lowerback upperback
    upperback thorax
    thorax lowerneck lclavicle rclavicle
    lowerneck upperneck
    upperneck head
    lclavicle lhumerus
    lhumerus lradius
    lradius lwrist
    lwrist lhand lthumb
    lhand lfingers
    rclavicle rhumerus
    rhumerus rradius
    rradius rwrist
    rwrist rhand rthumb
    rhand rfingers
  end

#!OML:ASF E:\mmandel\Project 1\Capture day 1\Session 2\Subject.ASF
:FULLY-SPECIFIED
:DEGREES
59
root 23.6398 2.44782 -1.42369 31.2023 74.5662 -63.0486
lowerback -1.11177 3.68584 -9.45266
upperback -1.50931 5.04235 2.49651
thorax -2.00092 2.72196 7.84997
lowerneck -15.5535 2.71983 3.94604
upperneck -7.04992 3.29236 -10.0039
head 0.687269 1.60926 -3.83728
rclavicle -5.48646e-014 -3.07472e-014
rhumerus -62.0392 -53.8538 -14.5741
rradius 9.38951
rwrist -331.471
rhand -13.1143 33.0512
rfingers 7.12502
rthumb 12.983 3.47512
lclavicle -5.48646e-014 -3.07472e-014
lhumerus -47.069 -0.654828 79.2208
lradius 17.7335
lwrist 16.6635
lhand -34.1936 -46.8871
lfingers 7.12502
lthumb -7.36647 -17.0354
rfemur -44.5861 -52.5742 27.7105
rtibia 73.4104
rfoot -5.13123 -8.5606
rtoes -13.9289
lfemur -2.65171 5.10313 -14.3036
ltibia 23.6017
lfoot -12.8786 -7.95211
ltoes 14.7434
60
root 23.6412 2.44802 -1.42042 31.2731 74.6143 -63.0464
lowerback -1.15073 3.66156 -9.37223
upperback -1.54497 5.01195 2.46395
thorax -1.99958 2.70653 7.7722
lowerneck -15.4573 2.75903 4.03666
upperneck -7.12597 3.32712 -10.1063
head 0.653339 1.62823 -3.88999
rclavicle -3.85642e-014 6.65385e-015
rhumerus -60.138 -52.9155 -16.9635
rradius 9.73628
rwrist -335.69
rhand -12.7632 32.5858
rfingers 7.12502
rthumb 13.3215 3.03157
lclavicle -3.85642e-014 6.65385e-015
lhumerus -47.3686 0.44731 78.2519
lradius 18.2571
lwrist 18.4323
lhand -33.8349 -46.091
lfingers 7.12502
lthumb -7.02018 -16.2274
rfemur -44.689 -52.5769 27.8368
rtibia 73.3788
rfoot -5.07976 -8.57139
rtoes -13.7907
lfemur -2.71247 4.52608 -14.3653
ltibia 23.6151
lfoot -13.0391 -7.45189
ltoes 14.8695
61
root 23.6393 2.4471 -1.42316 30.9531 74.9045 -63.1464
lowerback -0.880127 3.60195 -9.07108
upperback -1.5115 4.90501 2.47391
thorax -2.06843 2.64889 7.59831
lowerneck -15.4501 2.78952 4.14221
upperneck -7.00277 3.35493 -10.1721
head 0.700235 1.63361 -3.93229
rclavicle -7.55382e-014 3.49162e-014
rhumerus -58.3229 -51.9704 -19.3416
rradius 10.0772
rwrist -339.931
rhand -12.7164 32.3876
rfingers 7.12502
rthumb 13.3666 2.83635
lclavicle -7.55382e-014 3.49162e-014
lhumerus -47.5886 1.44079 77.3601
lradius 18.6725
lwrist 20.2982
lhand -33.6679 -45.5239
lfingers 7.12502
lthumb -6.85901 -15.6551
rfemur -44.2351 -52.8461 27.6558
rtibia 73.3338
rfoot -5.05888 -8.50183
rtoes -13.675
lfemur -2.55734 4.5179 -14.1371
ltibia 23.6599
lfoot -12.8879 -7.70124
ltoes 15.4215
62
root 23.6345 2.44724 -1.42717 31.0583 75.2262 -62.7253
lowerback -0.522622 3.52497 -8.87531
upperback -1.45585 4.76716 2.46779
thorax -2.16602 2.57675 7.4641
lowerneck -15.37 2.85292 4.3546
upperneck -6.91932 3.40833 -10.3986
head 0.731128 1.65052 -4.05247
rclavicle 1.30005e-013 3.59365e-015
rhumerus -57.6276 -51.4244 -20.3691
rradius 10.4878
rwrist -343.17
rhand -12.618 32.371
rfingers 7.12502
rthumb 13.4614 2.82597
lclavicle 1.30005e-013 3.59365e-015
lhumerus -47.8117 2.31156 76.562
lradius 19.1241
lwrist 22.3319
lhand -33.6768 -45.1498
lfingers 7.12502
lthumb -6.86754 -15.2812
rfemur -43.6779 -53.23 27.2525
rtibia 73.3111
rfoot -4.97761 -8.42556
rtoes -13.7604
lfemur -2.35348 4.1855 -14.0653
ltibia 23.7341
lfoot -12.8286 -7.73307
ltoes 15.4359
63
root 23.6301 2.44885 -1.42922 31.6311 75.416 -61.8849
lowerback -0.209575 3.47025 -8.87069
upperback -1.4182 4.66212 2.42976
thorax -2.27858 2.52518 7.40631
lowerneck -15.3462 2.86338 4.32262
upperneck -6.82006 3.43131 -10.352
head 0.760013 1.65952 -4.02762
rclavicle 8.90555e-014 1.37394e-014
rhumerus -57.0846 -50.9113 -21.1682
rradius 10.8832
rwrist -346.112
rhand -12.4447 32.2126
rfingers 7.12502
rthumb 13.6284 2.6787
lclavicle 8.90555e-014 1.37394e-014
lhumerus -48.1129 3.34032 75.618
lradius 19.6186
lwrist 24.1311
lhand -33.3175 -44.6595
lfingers 7.12502
lthumb -6.52071 -14.7799
rfemur -43.2704 -53.5286 26.7911
rtibia 73.3051
rfoot -4.85929 -8.37207
rtoes -14.1489
lfemur -2.22101 3.83736 -14.1761
ltibia 23.8186
lfoot -12.7894 -7.70771
ltoes 15.4733
64
root 23.6301 2.44992 -1.42782 31.7068 75.5368 -61.7319
lowerback -0.0900337 3.44327 -8.78638
upperback -1.41186 4.61439 2.40899
thorax -2.32094 2.50054 7.33103
lowerneck -15.3559 2.86417 4.15897
upperneck -6.81093 3.45941 -10.0922
head 0.754584 1.68004 -3.89984
rclavicle 8.74653e-014 4.5427e-014
rhumerus -57.0515 -50.7668 -21.2818
rradius 11.1635
rwrist -348.279
rhand -12.3903 32.054
rfingers 7.12502
rthumb 13.6808 2.52362
lclavicle 8.74653e-014 4.5427e-014
lhumerus -48.3904 4.28023 74.7105
lradius 20.1171
lwrist 25.91
lhand -32.5545 -43.916
lfingers 7.12502
lthumb -5.78409 -14.0149
rfemur -43.1226 -53.6308 26.708
rtibia 73.2748
rfoot -4.81653 -8.37135
rtoes -14.2338
lfemur -2.22437 3.81619 -14.121
ltibia 23.8846
lfoot -12.7095 -7.83444
ltoes 15.6688
65
root 23.6312 2.45006 -1.42491 31.5506 75.6193 -61.9498
lowerback -0.133847 3.42905 -8.68543
upperback -1.42937 4.60016 2.40684
thorax -2.30302 2.49185 7.27437
lowerneck -15.3029 2.89111 4.13345
upperneck -6.90504 3.49668 -10.009
head 0.713521 1.70529 -3.86295
rclavicle -2.50469e-014 2.34411e-014
rhumerus -57.026 -50.6657 -21.3884
rradius 11.4135
rwrist -350.238
rhand -12.4657 31.8837
rfingers 7.12502
rthumb 13.6082 2.34851
lclavicle -2.50469e-014 2.34411e-014
lhumerus -48.5522 5.13031 73.938
lradius 20.5385
lwrist 27.5852
lhand -32.0942 -43.0913
lfingers 7.12502
lthumb -5.33964 -13.1785
rfemur -43.1724 -53.6303 26.8652
rtibia 73.2314
rfoot -4.87306 -8.38595
rtoes -13.8762
lfemur -2.29596 3.82909 -14.0079
ltibia 23.907
lfoot -12.7617 -7.86518
ltoes 15.4485
66
root 23.6333 2.44939 -1.42079 31.2925 75.5988 -62.3652
lowerback -0.291666 3.44207 -8.62475
upperback -1.48121 4.63321 2.41771
thorax -2.27044 2.50934 7.2583
lowerneck -15.2511 2.91756 4.16005
upperneck -6.92243 3.52754 -10.054
head 0.703324 1.72138 -3.88254
rclavicle -6.24184e-014 -2.6297e-014
rhumerus -57.0964 -50.5564 -21.3697
rradius 11.7042
rwrist -351.99
rhand -12.4909 31.6451
rfingers 7.12502
rthumb 13.5839 2.10827
lclavicle -6.24184e-014 -2.6297e-014
lhumerus -48.6624 6.13638 73.1297
lradius 20.8432
lwrist 28.88
lhand -32.1374 -42.6316
lfingers 7.12502
lthumb -5.38137 -12.7199
rfemur -43.369 -53.5132 27.1359
rtibia 73.1859
rfoot -4.96273 -8.35435
rtoes -13.775
lfemur -2.41819 3.82378 -13.9303
ltibia 23.912
lfoot -12.8485 -7.76261
ltoes 15.2082
67
root 23.6397 2.44842 -1.41192 30.9539 75.402 -63.0122
lowerback -0.628763 3.49129 -8.643
upperback -1.55985 4.73031 2.41095
thorax -2.18246 2.55941 7.27662
lowerneck -15.318 2.92623 4.12213
upperneck -6.75229 3.55168 -9.98526
head 0.770509 1.72716 -3.84818
rclavicle -6.40087e-014 -7.09257e-015
rhumerus -57.7006 -50.7811 -20.6674
rradius 11.9507
rwrist -353.061
rhand -12.3221 31.4021
rfingers 7.12502
rthumb 13.7466 1.8762
lclavicle -6.40087e-014 -7.09257e-015
lhumerus -48.7787 6.87671 72.5245
lradius 21.1709
lwrist 30.2652
lhand -32.0369 -42.3447
lfingers 7.12502
lthumb -5.28432 -12.4306
rfemur -43.8328 -53.1816 27.6049
rtibia 73.161
rfoot -4.9767 -8.33236
rtoes -14.2313
lfemur -2.69909 4.2042 -13.8512
ltibia 23.972
lfoot -13.0388 -7.56648
ltoes 13.7011
68
root 23.6463 2.44841 -1.40059 30.9923 75.0959 -63.3447
lowerback -1.05664 3.53919 -8.79997
upperback -1.63999 4.83244 2.3548
thorax -2.05396 2.61157 7.32808
lowerneck -15.3261 2.94544 4.19622
upperneck -6.65005 3.56866 -9.96223
head 0.808692 1.72969 -3.85308
rclavicle -6.59965e-014 -8.74497e-015
rhumerus -58.6092 -51.2954 -19.5712
rradius 12.0854
rwrist -353.625
rhand -12.3622 31.2874
rfingers 7.12502
rthumb 13.7079 1.75891
lclavicle -6.59965e-014 -8.74497e-015
lhumerus -48.9056 7.29845 72.1318
lradius 21.599
lwrist 31.7947
lhand -31.8006 -41.8039
lfingers 7.12502
lthumb -5.05622 -11.8842
rfemur -44.4349 -52.7479 28.0459
rtibia 73.1645
rfoot -4.91307 -8.3317
rtoes -14.1883
lfemur -3.03823 4.68085 -13.8933
ltibia 24.0069
lfoot -13.3717 -7.12286
ltoes 11.1255
69
root 23.633 2.45492 -1.42086 32.5527 75.6953 -60.9958
lowerback -0.0990747 3.38306 -8.65353
upperback -1.48383 4.52877 2.25295
thorax -2.35007 2.45638 7.09201
lowerneck -15.2862 2.97292 4.30059
upperneck -6.6746 3.58807 -10.0493
head 0.800663 1.7377 -3.90374
rclavicle 5.1684e-014 1.25039e-013
rhumerus -59.3956 -51.7175 -18.5661
rradius 12.2127
rwrist -354.342
rhand -12.4174 31.0851
rfingers 7.12502
rthumb 13.6547 1.55301
lclavicle 5.1684e-014 1.25039e-013
lhumerus -49.0041 7.76785 71.7601
lradius 22.015
lwrist 32.9918
lhand -32.2612 -41.1921
lfingers 7.12502
lthumb -5.50094 -11.2835
rfemur -43.2397 -53.7072 26.6837
rtibia 73.2171
rfoot -4.71075 -8.15065
rtoes -13.4623
lfemur -2.57146 3.67004 -14.2051
ltibia 24.1059
lfoot -13.5473 -6.654
ltoes 9.71654
70
root 23.633 2.4569 -1.41789 33.1244 75.7019 -60.3853
lowerback -0.0134253 3.36728 -8.75085
upperback -1.49181 4.49679 2.21485
thorax -2.40561 2.44367 7.10252
lowerneck -15.32 2.98406 4.23149
upperneck -6.69135 3.61446 -10.0439
head 0.800861 1.75327 -3.88637
rclavicle 1.07741e-013 1.0074e-013
rhumerus -59.9775 -51.9897 -17.8435
rradius 12.3966
rwrist -355.368
rhand -12.1918 30.7991
rfingers 7.12502
rthumb 13.8722 1.28172
lclavicle 1.07741e-013 1.0074e-013
lhumerus -49.0991 8.16839 71.4706
lradius 22.4601
lwrist 34.2709
lhand -33.0342 -40.9195
lfingers 7.12502
lthumb -6.24725 -11.0316
rfemur -43.1517 -53.7591 26.4618
rtibia 73.2328
rfoot -4.73655 -8.09098
rtoes -13.0377
lfemur -2.62669 3.46709 -14.3656
ltibia 24.2014
lfoot -13.6894 -6.50651
ltoes 8.80817
71
root 23.6216 2.46013 -1.43008 34.1688 76.3605 -58.6145
lowerback 0.867051 3.16584 -8.44526
upperback -1.35231 4.14809 2.18129
thorax -2.66366 2.26446 6.86388
lowerneck -15.2836 3.00105 4.18932
upperneck -6.78607 3.64095 -10.0734
head 0.764716 1.77194 -3.88731
rclavicle 5.24792e-014 5.80141e-014
rhumerus -60.4139 -52.209 -17.3676
rradius 12.5633
rwrist -356.494
rhand -12.1184 30.8237
rfingers 7.12502
rthumb 13.9429 1.31125
lclavicle 5.24792e-014 5.80141e-014
lhumerus -49.229 8.43182 71.2316
lradius 22.9505
lwrist 35.8741
lhand -32.9945 -40.7504
lfingers 7.12502
lthumb -6.20893 -10.8614
rfemur -41.8884 -54.7091 25.3424
rtibia 73.2362
rfoot -4.576 -7.93805
rtoes -13.0202
lfemur -2.168 2.30156 -14.4818
ltibia 24.3372
lfoot -13.6608 -6.39324
ltoes 9.95712
72
root 23.62 2.45982 -1.42586 34.2281 76.4402 -58.4185
lowerback 1.0299 3.10146 -8.35831
upperback -1.34521 4.04784 2.16378
thorax -2.72179 2.21385 6.79285
lowerneck -15.0455 3.07059 4.30504
upperneck -7.08573 3.70446 -10.2522
head 0.637332 1.81548 -3.97226
rclavicle -2.98177e-014 -3.54085e-016
rhumerus -61.2893 -52.7067 -16.3075
rradius 12.6486
rwrist -357.189
rhand -11.9533 30.9325
rfingers 7.12502
rthumb 14.102 1.431
lclavicle -2.98177e-014 -3.54085e-016
lhumerus -49.3217 8.85335 70.87
lradius 23.3301
lwrist 37.1488
lhand -32.6383 -40.3876
lfingers 7.12502
lthumb -5.86505 -10.4887
rfemur -41.583 -54.8438 25.1221
rtibia 73.2035
rfoot -4.53425 -7.87282
rtoes -12.8224
lfemur -2.0449 2.24181 -14.4589
ltibia 24.3413
lfoot -13.274 -6.94603
ltoes 12.9903
